<?xml version="1.0" standalone="no"?>
<!DOCTYPE svg PUBLIC "-//W3C//DTD SVG 20010904//EN"
 "http://www.w3.org/TR/2001/REC-SVG-20010904/DTD/svg10.dtd">
<svg version="1.0" xmlns="http://www.w3.org/2000/svg"
 width="700.000000pt" height="700.000000pt" viewBox="0 0 700.000000 700.000000"
 preserveAspectRatio="xMidYMid meet">
<metadata>
Created by potrace 1.14, written by Peter Selinger 2001-2017
</metadata>
<g transform="translate(0.000000,700.000000) scale(0.100000,-0.100000)"
fill="#000000" stroke="none">
<path d="M3280 6994 c-19 -2 -84 -9 -145 -14 -639 -62 -1264 -315 -1795 -726
-149 -115 -481 -446 -595 -594 -410 -532 -653 -1132 -727 -1795 -17 -155 -17
-575 0 -730 75 -673 332 -1300 748 -1820 114 -143 339 -372 484 -494 537 -451
1163 -717 1885 -803 142 -17 586 -17 730 0 682 79 1268 318 1802 734 138 107
389 351 512 498 451 538 717 1162 803 1885 16 139 16 595 0 730 -77 629 -275
1158 -620 1649 -234 333 -577 668 -917 896 -460 308 -968 495 -1535 566 -117
15 -552 27 -630 18z m135 -2729 c158 -294 171 -314 185 -296 8 10 95 152 193
315 l178 296 335 0 335 0 -22 -32 c-13 -18 -181 -253 -374 -523 -193 -269
-354 -495 -358 -502 -5 -7 129 -218 343 -538 192 -288 350 -527 350 -530 0 -3
-149 -4 -331 -3 l-332 3 -173 310 c-95 170 -177 311 -181 312 -4 1 -87 -131
-183 -294 -96 -163 -182 -304 -190 -315 -14 -18 -31 -18 -343 -16 l-327 3 193
270 c106 149 276 387 378 531 l186 261 -353 526 c-195 290 -354 529 -354 532
0 3 152 5 338 5 l337 0 170 -315z"/>
</g>
</svg>
